<?xml version="1.0" encoding="utf-8"?>
<svg xmlns="http://www.w3.org/2000/svg" viewBox="54.69 48.326 203.4675 155.475" width="203.4675px" height="155.475px">
  <path style="fill: none; stroke: currentColor; stroke-linejoin: round; stroke-width: 10px;" d="M 150.84 48.326 L 100.901 98.264 L 54.69 98.264 L 54.69 153.812 L 100.457 153.812 C 100.457 153.812 150.997 203.801 150.446 203.801 L 150.84 48.326 Z" transform="matrix(1, 0, 0, 1, 0, 7.105427357601002e-15)"/>
  <path style="fill: none; stroke: currentColor; stroke-width: 9px; stroke-linecap: round;" d="M 184.904 88.471 C 200.538 101.214 206.684 138.77 185.645 165.42" transform="matrix(1, 0, 0, 1, 0, 7.105427357601002e-15)"/>
  <path style="fill: none; stroke-width: 9px; stroke-linecap: round; stroke: currentColor;" d="M 204.367 71.158 C 227.069 89.662 235.994 144.197 205.443 182.895" transform="matrix(1, 0, 0, 1, 0, 7.105427357601002e-15)"/>
  <path style="fill: none; stroke-width: 9px; stroke-linecap: round; stroke: currentColor;" d="M 230.27 51.801 C 260.882 76.753 272.917 150.29 231.721 202.472" transform="matrix(1, 0, 0, 1, 0, 7.105427357601002e-15)"/>
</svg>